{
  "accessors": [
    {
      "bufferView": 2,
      "componentType": 5126,
      "count": 579,
      "max": [
        1.7135639190673828,
        21.302303314208984,
        1.7135637998580933
      ],
      "min": [
        -1.7135639190673828,
        -19.572776794433594,
        -1.7135637998580933
      ],
      "type": "VEC3"
    },
    {
      "bufferView": 2,
      "byteOffset": 6948,
      "componentType": 5126,
      "count": 579,
      "type": "VEC3"
    },
    {
      "bufferView": 3,
      "componentType": 5126,
      "count": 579,
      "type": "VEC4"
    },
    {
      "bufferView": 1,
      "componentType": 5126,
      "count": 579,
      "type": "VEC2"
    },
    {
      "bufferView": 1,
      "byteOffset": 4632,
      "componentType": 5126,
      "count": 579,
      "type": "VEC2"
    },
    {
      "bufferView": 0,
      "componentType": 5125,
      "count": 2508,
      "type": "SCALAR"
    },
    {
      "bufferView": 2,
      "byteOffset": 13896,
      "componentType": 5126,
      "count": 194,
      "max": [
        0.9729633331298828,
        18.290037155151367,
        0.9729633331298828
      ],
      "min": [
        -0.9729633331298828,
        -19.54442024230957,
        -0.9729632139205933
      ],
      "type": "VEC3"
    },
    {
      "bufferView": 2,
      "byteOffset": 16224,
      "componentType": 5126,
      "count": 194,
      "type": "VEC3"
    },
    {
      "bufferView": 3,
      "byteOffset": 9264,
      "componentType": 5126,
      "count": 194,
      "type": "VEC4"
    },
    {
      "bufferView": 1,
      "byteOffset": 9264,
      "componentType": 5126,
      "count": 194,
      "type": "VEC2"
    },
    {
      "bufferView": 1,
      "byteOffset": 10816,
      "componentType": 5126,
      "count": 194,
      "type": "VEC2"
    },
    {
      "bufferView": 0,
      "byteOffset": 10032,
      "componentType": 5125,
      "count": 909,
      "type": "SCALAR"
    },
    {
      "bufferView": 2,
      "byteOffset": 18552,
      "componentType": 5126,
      "count": 26,
      "max": [
        0.31818297505378723,
        10.79236888885498,
        0.31818297505378723
      ],
      "min": [
        -0.31818297505378723,
        -18.06562042236328,
        -0.31818291544914246
      ],
      "type": "VEC3"
    },
    {
      "bufferView": 2,
      "byteOffset": 18864,
      "componentType": 5126,
      "count": 26,
      "type": "VEC3"
    },
    {
      "bufferView": 3,
      "byteOffset": 12368,
      "componentType": 5126,
      "count": 26,
      "type": "VEC4"
    },
    {
      "bufferView": 1,
      "byteOffset": 12368,
      "componentType": 5126,
      "count": 26,
      "type": "VEC2"
    },
    {
      "bufferView": 1,
      "byteOffset": 12576,
      "componentType": 5126,
      "count": 26,
      "type": "VEC2"
    },
    {
      "bufferView": 0,
      "byteOffset": 13668,
      "componentType": 5125,
      "count": 72,
      "type": "SCALAR"
    }
  ],
  "asset": {
    "generator": "fab-model-conversion",
    "version": "2.0"
  },
  "bufferViews": [
    {
      "buffer": 0,
      "byteLength": 13956,
      "target": 34963
    },
    {
      "buffer": 0,
      "byteLength": 12784,
      "byteOffset": 13956,
      "byteStride": 8,
      "target": 34962
    },
    {
      "buffer": 0,
      "byteLength": 19176,
      "byteOffset": 26740,
      "byteStride": 12,
      "target": 34962
    },
    {
      "buffer": 0,
      "byteLength": 12784,
      "byteOffset": 45916,
      "byteStride": 16,
      "target": 34962
    }
  ],
  "buffers": [
    {
      "byteLength": 58700,
      "uri": "scene.bin"
    }
  ],
  "extensionsUsed": [
    "KHR_materials_specular",
    "KHR_materials_emissive_strength",
    "KHR_materials_clearcoat",
    "KHR_materials_transmission"
  ],
  "images": [
    {
      "uri": "textures/Embelishments_baseColor.png"
    },
    {
      "uri": "textures/Embelishments_normal.png"
    },
    {
      "uri": "textures/Crystal_baseColor.png"
    },
    {
      "uri": "textures/Crystal_normal.png"
    },
    {
      "uri": "textures/Pole_baseColor.png"
    },
    {
      "uri": "textures/Pole_normal.png"
    }
  ],
  "materials": [
    {
      "extensions": {
        "KHR_materials_specular": {
          "specularColorFactor": [
            1.0,
            1.0,
            1.0
          ],
          "specularFactor": 0.7680294218211721
        }
      },
      "name": "Embelishments",
      "normalTexture": {
        "index": 1
      },
      "pbrMetallicRoughness": {
        "baseColorTexture": {
          "index": 0
        },
        "metallicFactor": 0.7680294218211721,
        "roughnessFactor": 0.16288247828999702
      }
    },
    {
      "alphaMode": "BLEND",
      "emissiveFactor": [
        0.492038141,
        0.0516713275,
        0.0
      ],
      "extensions": {
        "KHR_materials_clearcoat": {
          "clearcoatFactor": 1.0,
          "clearcoatRoughnessFactor": 0.04
        },
        "KHR_materials_emissive_strength": {
          "emissiveStrength": 4.546122041138463
        },
        "KHR_materials_specular": {
          "specularColorFactor": [
            1.0,
            1.0,
            1.0
          ],
          "specularFactor": 1.0
        },
        "KHR_materials_transmission": {
          "transmissionFactor": 0.050000000000000044
        }
      },
      "name": "Crystal",
      "normalTexture": {
        "index": 3
      },
      "pbrMetallicRoughness": {
        "baseColorFactor": [
          1.0,
          1.0,
          1.0,
          0.95
        ],
        "baseColorTexture": {
          "index": 2
        },
        "metallicFactor": 0.0,
        "roughnessFactor": 0.0
      }
    },
    {
      "extensions": {
        "KHR_materials_specular": {
          "specularColorFactor": [
            1.0,
            1.0,
            1.0
          ],
          "specularFactor": 0.1401467953
        }
      },
      "name": "Pole",
      "normalTexture": {
        "index": 5
      },
      "pbrMetallicRoughness": {
        "baseColorTexture": {
          "index": 4
        },
        "metallicFactor": 0.0,
        "roughnessFactor": 0.6810272985
      }
    }
  ],
  "meshes": [
    {
      "name": "Object_0",
      "primitives": [
        {
          "attributes": {
            "NORMAL": 1,
            "POSITION": 0,
            "TANGENT": 2,
            "TEXCOORD_0": 3,
            "TEXCOORD_1": 4
          },
          "indices": 5,
          "material": 0,
          "mode": 4
        }
      ]
    },
    {
      "name": "Object_1",
      "primitives": [
        {
          "attributes": {
            "NORMAL": 7,
            "POSITION": 6,
            "TANGENT": 8,
            "TEXCOORD_0": 9,
            "TEXCOORD_1": 10
          },
          "indices": 11,
          "material": 1,
          "mode": 4
        }
      ]
    },
    {
      "name": "Object_2",
      "primitives": [
        {
          "attributes": {
            "NORMAL": 13,
            "POSITION": 12,
            "TANGENT": 14,
            "TEXCOORD_0": 15,
            "TEXCOORD_1": 16
          },
          "indices": 17,
          "material": 2,
          "mode": 4
        }
      ]
    }
  ],
  "nodes": [
    {
      "children": [
        1
      ],
      "matrix": [
        1.0,
        0.0,
        0.0,
        0.0,
        0.0,
        2.220446049250313e-16,
        -1.0,
        0.0,
        0.0,
        1.0,
        2.220446049250313e-16,
        0.0,
        0.0,
        0.0,
        0.0,
        1.0
      ],
      "name": "Sketchfab_model"
    },
    {
      "children": [
        2
      ],
      "name": "root"
    },
    {
      "children": [
        3,
        5,
        7
      ],
      "matrix": [
        1.0,
        0.0,
        0.0,
        0.0,
        0.0,
        2.220446049250313e-16,
        1.0,
        0.0,
        0.0,
        -1.0,
        2.220446049250313e-16,
        0.0,
        0.0,
        0.0,
        0.0,
        1.0
      ],
      "name": "GLTF_SceneRootNode"
    },
    {
      "children": [
        4
      ],
      "matrix": [
        0.5544000864028931,
        0.0,
        0.0,
        0.0,
        0.0,
        0.27720004320144653,
        0.0,
        0.0,
        0.0,
        0.0,
        0.5544000864028931,
        0.0,
        0.0,
        0.0,
        0.0,
        1.0
      ],
      "name": "Embelishments_0"
    },
    {
      "mesh": 0,
      "name": "Object_4"
    },
    {
      "children": [
        6
      ],
      "matrix": [
        0.5544000864028931,
        0.0,
        0.0,
        0.0,
        0.0,
        0.27720004320144653,
        0.0,
        0.0,
        0.0,
        0.0,
        0.5544000864028931,
        0.0,
        0.0,
        0.0,
        0.0,
        1.0
      ],
      "name": "Crystal_1"
    },
    {
      "mesh": 1,
      "name": "Object_6"
    },
    {
      "children": [
        8
      ],
      "matrix": [
        0.5544000864028931,
        0.0,
        0.0,
        0.0,
        0.0,
        0.27720004320144653,
        0.0,
        0.0,
        0.0,
        0.0,
        0.5544000864028931,
        0.0,
        0.0,
        0.0,
        0.0,
        1.0
      ],
      "name": "Pole_2"
    },
    {
      "mesh": 2,
      "name": "Object_8"
    }
  ],
  "samplers": [
    {
      "magFilter": 9729,
      "minFilter": 9987,
      "wrapS": 10497,
      "wrapT": 10497
    }
  ],
  "scene": 0,
  "scenes": [
    {
      "name": "Sketchfab_Scene",
      "nodes": [
        0
      ]
    }
  ],
  "textures": [
    {
      "sampler": 0,
      "source": 0
    },
    {
      "sampler": 0,
      "source": 1
    },
    {
      "sampler": 0,
      "source": 2
    },
    {
      "sampler": 0,
      "source": 3
    },
    {
      "sampler": 0,
      "source": 4
    },
    {
      "sampler": 0,
      "source": 5
    }
  ]
}
