{
	"asset":
	{
		"version": "2.0",
		"generator": "Unreal Engine 5.3.2"
	},
	"scene": 0,
	"accessors": [
		{
			"bufferView": 0,
			"count": 11,
			"type": "MAT4",
			"componentType": 5126
		},
		{
			"bufferView": 1,
			"count": 5856,
			"type": "SCALAR",
			"componentType": 5123
		},
		{
			"bufferView": 2,
			"count": 1929,
			"type": "VEC3",
			"componentType": 5126,
			"min": [ -0.89505583, 0.00601709075, -0.243152663 ],
			"max": [ 0.727654874, 1.8628515, 0.248513356 ]
		},
		{
			"bufferView": 3,
			"count": 1929,
			"type": "VEC3",
			"componentType": 5126
		},
		{
			"bufferView": 4,
			"count": 1929,
			"type": "VEC4",
			"componentType": 5126
		},
		{
			"bufferView": 5,
			"count": 1929,
			"type": "VEC2",
			"componentType": 5126
		},
		{
			"bufferView": 6,
			"count": 1929,
			"type": "VEC4",
			"componentType": 5121
		},
		{
			"bufferView": 7,
			"count": 1929,
			"type": "VEC4",
			"componentType": 5121,
			"normalized": true
		}
	],
	"buffers": [
		{
			"uri": "TrainingDummy001.bin",
			"byteLength": 120440
		}
	],
	"bufferViews": [
		{
			"buffer": 0,
			"byteLength": 704
		},
		{
			"buffer": 0,
			"byteLength": 11712,
			"byteOffset": 704,
			"target": 34963
		},
		{
			"buffer": 0,
			"byteLength": 23148,
			"byteOffset": 12416,
			"target": 34962
		},
		{
			"buffer": 0,
			"byteLength": 23148,
			"byteOffset": 35564,
			"target": 34962
		},
		{
			"buffer": 0,
			"byteLength": 30864,
			"byteOffset": 58712,
			"target": 34962
		},
		{
			"buffer": 0,
			"byteLength": 15432,
			"byteOffset": 89576,
			"target": 34962
		},
		{
			"buffer": 0,
			"byteLength": 7716,
			"byteOffset": 105008,
			"target": 34962
		},
		{
			"buffer": 0,
			"byteLength": 7716,
			"byteOffset": 112724,
			"target": 34962
		}
	],
	"images": [
		{
			"uri": "TrainingDummy001_MAT_MetallicRoughness.png"
		},
		{
			"uri": "TrainingDummy001_09_-_Default_BaseColor.png"
		},
		{
			"uri": "TrainingDummy001_09_-_Default_Normal.png"
		}
	],
	"materials": [
		{
			"name": "TrainingDummy001_MAT",
			"pbrMetallicRoughness":
			{
				"baseColorTexture":
				{
					"index": 0
				},
				"metallicRoughnessTexture":
				{
					"index": 1
				}
			},
			"normalTexture":
			{
				"index": 2
			}
		}
	],
	"meshes": [
		{
			"name": "TrainingDummy001",
			"primitives": [
				{
					"attributes":
					{
						"POSITION": 2,
						"NORMAL": 3,
						"TANGENT": 4,
						"TEXCOORD_0": 5,
						"JOINTS_0": 6,
						"WEIGHTS_0": 7
					},
					"indices": 1,
					"material": 0
				}
			]
		}
	],
	"nodes": [
		{
			"skin": 0,
			"mesh": 0,
			"children": [ 1 ]
		},
		{
			"name": "Rig",
			"scale": [ 100, 100, 100 ],
			"children": [ 2 ]
		},
		{
			"name": "Root",
			"rotation": [ -0.707106829, -0, 0, -0.707106829 ],
			"children": [ 3, 8, 10 ]
		},
		{
			"name": "Torso",
			"translation": [ 0, 0, -0.00794321764 ],
			"rotation": [ 4.09582451e-10, 0.00179528061, -2.28143605e-07, -0.999998391 ],
			"children": [ 4 ]
		},
		{
			"name": "Torso_003",
			"translation": [ -2.78098031e-12, 1.57040591e-18, -0.00541446917 ],
			"rotation": [ 1.27669453e-09, 0.00285207038, 8.650618e-09, -0.999995947 ],
			"children": [ 5, 6, 7 ]
		},
		{
			"name": "Torso_006",
			"translation": [ 1.6581049e-11, -1.11096676e-17, -0.00200672424 ]
		},
		{
			"name": "Torso_007",
			"translation": [ 1.6581049e-11, -1.11096676e-17, -0.00200672424 ],
			"rotation": [ 0.0777430162, 0.714363396, -0.0192238837, -0.695177257 ]
		},
		{
			"name": "Torso_008",
			"translation": [ 1.6581049e-11, -1.11096676e-17, -0.00200672424 ],
			"rotation": [ 0.208426714, -0.709398866, -0.0798311234, -0.668534636 ]
		},
		{
			"name": "Torso_001",
			"translation": [ -0.0020422989, -5.85595881e-05, -0.0113030095 ],
			"rotation": [ -3.14238065e-07, -0.711047173, -3.1074552e-07, -0.703144312 ],
			"children": [ 9 ]
		},
		{
			"name": "Torso_005",
			"translation": [ 3.7830572e-10, -5.96079913e-12, -0.0045012855 ],
			"rotation": [ 6.29405008e-07, 0.714135885, 1.7655285e-09, -0.700007141 ]
		},
		{
			"name": "Torso_002",
			"translation": [ 0.00193839904, 0.0001599276, -0.0112669589 ],
			"rotation": [ 0.0141483042, 0.701714277, 0.0134557886, -0.712190866 ],
			"children": [ 11 ]
		},
		{
			"name": "Torso_004",
			"translation": [ -1.81610033e-10, -2.58140146e-12, -0.00445675803 ],
			"rotation": [ 0.00370841124, -0.707751632, 0.000872015895, -0.706451178 ]
		}
	],
	"samplers": [
		{
			"minFilter": 9987,
			"magFilter": 9729
		}
	],
	"scenes": [
		{
			"nodes": [ 0 ]
		}
	],
	"skins": [
		{
			"name": "TrainingDummy001",
			"inverseBindMatrices": 0,
			"skeleton": 0,
			"joints": [ 1, 2, 3, 4, 5, 6, 7, 8, 9, 10, 11 ]
		}
	],
	"textures": [
		{
			"name": "TrainingDummy001_09_-_Default_BaseColor",
			"sampler": 0,
			"source": 1
		},
		{
			"name": "TrainingDummy001_MAT_MetallicRoughness",
			"sampler": 0,
			"source": 0
		},
		{
			"name": "TrainingDummy001_09_-_Default_Normal",
			"sampler": 0,
			"source": 2
		}
	]
}